<?xml version="1.0" encoding="utf-8"?>
<!-- Generator: Adobe Illustrator 18.1.0, SVG Export Plug-In . SVG Version: 6.00 Build 0)  -->
<!DOCTYPE svg PUBLIC "-//W3C//DTD SVG 1.1//EN" "http://www.w3.org/Graphics/SVG/1.1/DTD/svg11.dtd">
<svg version="1.1" id="Layer_1" xmlns="http://www.w3.org/2000/svg" xmlns:xlink="http://www.w3.org/1999/xlink" x="0px" y="0px"
	 viewBox="0 0 432 111.1" enable-background="new 0 0 432 111.1" xml:space="preserve">
<g id="Logo_1_">
	<g>
		<defs>
			<ellipse id="SVGID_1_" cx="280" cy="53.6" rx="12.3" ry="11.5"/>
		</defs>
		<clipPath id="SVGID_2_">
			<use xlink:href="#SVGID_1_"  overflow="visible"/>
		</clipPath>
		<g clip-path="url(#SVGID_2_)">
			<path fill="#FFFFFF" stroke="#231F20" stroke-width="0.6219" stroke-miterlimit="10" d="M284.5,46.7c-5.3,0.6-10.2-0.4-14.8-2.7
				c-0.1,0.3-0.3,0.7-0.4,1c-0.3,0.7-0.6,1.5-0.8,2.3c-0.1,0.4-0.2,0.7-0.3,1.1c-0.1,0.3-0.1,0.5-0.2,0.8c-0.1,0.3-0.1,0.6-0.1,0.9
				c0,0.3-0.1,0.6-0.1,0.9c0,0.2-0.1,0.5-0.1,0.7c0,0.3-0.1,0.6-0.1,0.9c0,0.6,0,1.2,0,1.8c0,0.2,0,0.4,0,0.6c0,0.3,0.1,0.6,0.1,0.9
				c0.1,0.6,0.2,1.2,0.4,1.8c0.2,0.5,0.4,1,0.7,1.5c0.2,0.3,0.4,0.5,0.6,0.8c0.2,0.2,0.4,0.4,0.7,0.6c0.2,0.2,0.5,0.3,0.8,0.5
				c0.3,0.2,0.7,0.3,1.1,0.5c0.5,0.2,1,0.3,1.5,0.4c0.3,0,0.5,0.1,0.8,0.1c0.2,0,0.4,0,0.6,0c0.4,0,0.8-0.1,1.2-0.2
				c0.4-0.1,0.9-0.3,1.3-0.4c0.4-0.2,0.8-0.4,1.1-0.6c0.3-0.2,0.6-0.5,0.9-0.7c0.4-0.3,0.7-0.7,1-1.1c0.5-0.5,0.8-1.1,1.2-1.8
				c0.3-0.6,0.6-1.2,0.9-1.9c0.3-0.7,0.5-1.3,0.8-2c0.1-0.4,0.2-0.7,0.3-1.1c0.1-0.4,0.2-0.8,0.3-1.3c0.1-0.3,0.2-0.6,0.2-1
				c0-0.2,0.1-0.5,0.1-0.7c0-0.3,0.1-0.6,0.1-0.9c0-0.2,0-0.4,0.1-0.6c0-0.2,0-0.5,0-0.7C284.5,47,284.5,46.8,284.5,46.7z"/>
			<path d="M272.2,50.6c0,0.4,0,0.7,0.2,1c0.1,0.2,0.3,0.4,0.6,0.4c0.2,0,0.4-0.1,0.5-0.2c0.3-0.2,0.5-0.6,0.6-0.9
				c0.1-0.4,0.2-0.8,0.2-1.2c0-0.3-0.1-0.6-0.3-0.8c-0.2-0.2-0.5-0.3-0.8-0.2c-0.2,0.1-0.4,0.2-0.5,0.4c-0.2,0.2-0.3,0.5-0.4,0.8
				c0,0.2-0.1,0.4-0.1,0.6C272.2,50.4,272.2,50.5,272.2,50.6z"/>
			<path d="M277.4,51.5c0,0.3,0,0.6,0.2,0.9c0.1,0.1,0.2,0.3,0.3,0.3c0.3,0.1,0.5,0.1,0.7-0.1c0.2-0.1,0.4-0.3,0.5-0.5
				c0.2-0.3,0.3-0.7,0.4-1c0-0.2,0.1-0.5,0-0.7c0-0.3-0.1-0.5-0.3-0.8c-0.3-0.3-0.7-0.3-1-0.1c-0.3,0.2-0.5,0.5-0.6,0.8
				c-0.1,0.2-0.1,0.4-0.2,0.6C277.4,51.2,277.4,51.4,277.4,51.5z"/>
			<path d="M271.9,57c-0.1-0.1-0.1-0.2-0.2-0.3c0-0.1,0-0.2,0-0.2c0-0.2,0.1-0.2,0.3-0.3c0.4-0.2,0.8-0.4,1.2-0.6
				c0.4-0.1,0.8-0.3,1.2-0.3c0.6-0.1,1.1-0.1,1.7,0c0.5,0,0.9,0.1,1.3,0.2c0.3,0.1,0.5,0.2,0.7,0.3c0.1,0,0.2,0.1,0.2,0.1
				c0.4,0.2,0.8,0.5,1.2,0.9c0.3,0.3,0.6,0.7,0.9,1c0.2,0.3,0.4,0.7,0.6,1.1c0.1,0.2,0.1,0.4,0.2,0.6c0,0,0,0.1,0,0.1
				c-0.2,0.1-0.3,0.2-0.6,0.3c0-0.1,0-0.1-0.1-0.2c-0.1-0.5-0.3-1-0.6-1.4c-0.3-0.5-0.6-0.9-1.1-1.2c-0.2-0.2-0.4-0.3-0.6-0.4
				c-0.1-0.1-0.3-0.2-0.5-0.2c-0.3-0.2-0.7-0.3-1-0.4c-0.5-0.1-1-0.2-1.6-0.2c-0.2,0-0.4,0-0.6,0.1c-0.5,0.1-0.9,0.2-1.4,0.4
				c-0.4,0.2-0.8,0.4-1.2,0.6c0,0,0,0-0.1,0.1C272,57,272,57,271.9,57z"/>
			<path fill="#FFFFFF" stroke="#231F20" stroke-width="0.6219" stroke-miterlimit="10" d="M275.4,47.8c5.3,0.6,10.2-0.4,14.8-2.7
				c0.1,0.3,0.3,0.7,0.4,1c0.3,0.7,0.6,1.5,0.8,2.3c0.1,0.4,0.2,0.7,0.3,1.1c0.1,0.3,0.1,0.5,0.2,0.8c0.1,0.3,0.1,0.6,0.1,0.9
				c0,0.3,0.1,0.6,0.1,0.9c0,0.2,0.1,0.5,0.1,0.7c0,0.3,0.1,0.6,0.1,0.9c0,0.6,0,1.2,0,1.8c0,0.2,0,0.4,0,0.6c0,0.3-0.1,0.6-0.1,0.9
				c-0.1,0.6-0.2,1.2-0.4,1.8c-0.2,0.5-0.4,1-0.7,1.5c-0.2,0.3-0.4,0.5-0.6,0.8c-0.2,0.2-0.4,0.4-0.7,0.6c-0.2,0.2-0.5,0.3-0.8,0.5
				c-0.3,0.2-0.7,0.3-1.1,0.5c-0.5,0.2-1,0.3-1.5,0.4c-0.3,0-0.5,0.1-0.8,0.1c-0.2,0-0.4,0-0.6,0c-0.4,0-0.8-0.1-1.2-0.2
				c-0.4-0.1-0.9-0.3-1.3-0.4c-0.4-0.2-0.8-0.4-1.1-0.6c-0.3-0.2-0.6-0.5-0.9-0.7c-0.4-0.3-0.7-0.7-1-1.1c-0.5-0.5-0.8-1.1-1.2-1.8
				c-0.3-0.6-0.6-1.2-0.9-1.9c-0.3-0.7-0.5-1.3-0.8-2c-0.1-0.4-0.2-0.7-0.3-1.1c-0.1-0.4-0.2-0.8-0.3-1.3c-0.1-0.3-0.2-0.6-0.2-1
				c0-0.2-0.1-0.5-0.1-0.7c0-0.3-0.1-0.6-0.1-0.9c0-0.2,0-0.4-0.1-0.6c0-0.2,0-0.5,0-0.7C275.4,48.1,275.4,47.9,275.4,47.8z"/>
			<path d="M289.6,55.1c0.1,0.1,0.2,0.1,0.3,0.2c0.1,0.1,0.1,0.1,0.1,0.2c0.1,0.1,0,0.2-0.1,0.3c-0.2,0.4-0.4,0.7-0.7,1.1
				c-0.2,0.3-0.5,0.6-0.8,0.8c-0.4,0.3-0.9,0.6-1.4,0.8c-0.4,0.2-0.8,0.3-1.3,0.4c-0.3,0-0.5,0.1-0.8,0.1c-0.1,0-0.2,0-0.3,0
				c-0.5,0-1-0.1-1.5-0.2c-0.5-0.1-0.9-0.3-1.4-0.5c-0.4-0.2-0.8-0.4-1.1-0.6c-0.2-0.1-0.3-0.3-0.5-0.4c0,0,0,0-0.1-0.1
				c0.1-0.2,0.2-0.3,0.3-0.5c0.1,0,0.1,0.1,0.2,0.1c0.4,0.4,0.9,0.7,1.4,0.9c0.5,0.3,1.1,0.4,1.6,0.5c0.3,0,0.5,0.1,0.8,0.1
				c0.2,0,0.4,0,0.5,0c0.4,0,0.7-0.1,1.1-0.1c0.5-0.1,1-0.3,1.4-0.6c0.2-0.1,0.3-0.2,0.5-0.4c0.4-0.3,0.7-0.6,0.9-0.9
				c0.3-0.3,0.5-0.7,0.6-1.1c0,0,0-0.1,0-0.1C289.5,55.2,289.5,55.1,289.6,55.1z"/>
			<path d="M287.7,51.7c0,0.4,0,0.7-0.2,1c-0.1,0.2-0.3,0.4-0.6,0.4c-0.2,0-0.4-0.1-0.5-0.2c-0.3-0.2-0.5-0.6-0.6-0.9
				c-0.1-0.4-0.2-0.8-0.2-1.2c0-0.3,0.1-0.6,0.3-0.8c0.2-0.2,0.5-0.3,0.8-0.2c0.2,0.1,0.4,0.2,0.5,0.4c0.2,0.2,0.3,0.5,0.4,0.8
				c0,0.2,0.1,0.4,0.1,0.6C287.7,51.5,287.7,51.6,287.7,51.7z"/>
			<path d="M282.5,52.6c0,0.3,0,0.6-0.2,0.9c-0.1,0.1-0.2,0.3-0.3,0.3c-0.3,0.1-0.5,0.1-0.7-0.1c-0.2-0.1-0.4-0.3-0.5-0.5
				c-0.2-0.3-0.3-0.7-0.4-1c0-0.2-0.1-0.5,0-0.7c0-0.3,0.1-0.5,0.3-0.8c0.3-0.3,0.7-0.3,1-0.1c0.3,0.2,0.5,0.5,0.6,0.8
				c0.1,0.2,0.1,0.4,0.2,0.6C282.5,52.3,282.5,52.5,282.5,52.6z"/>
		</g>
		<use xlink:href="#SVGID_1_"  overflow="visible" fill="none" stroke="#231F20" stroke-width="0.8571" stroke-miterlimit="10"/>
	</g>
	<g>
		<text transform="matrix(0.9999 0 0 1 77.5886 64.9701)"><tspan x="0" y="0" fill="#231F20" font-family="'GillSans'" font-size="51.4286" letter-spacing="-2">JoinOurSt</tspan><tspan x="184.2" y="0" fill="none" font-family="'GillSans'" font-size="51.4286" letter-spacing="-2">o</tspan><tspan x="210" y="0" fill="#231F20" font-family="'GillSans'" font-size="51.4286" letter-spacing="-2">ry.com</tspan><tspan x="51.1" y="20.6" fill="#231F20" font-family="'GillSans'" font-size="17.1429">Collaborative Storytelling for    Healthier Minds</tspan></text>
	</g>
	<rect x="0" y="74.1" fill="#ED2224" width="64.8" height="37"/>
	<rect x="0" y="37" fill="#70CDDD" width="64.8" height="37"/>
	<rect x="0" y="0" fill="#6ABD45" width="64.8" height="37"/>
	<g>
		<text transform="matrix(0.9999 0 0 1 16.3293 97.8236)" fill="#FFFFFF" font-family="'GillSans'" font-size="17.1429">Share</text>
	</g>
	<g>
		<text transform="matrix(0.9999 0 0 1 11.7268 60.7953)" fill="#FFFFFF" font-family="'GillSans'" font-size="17.1429">Create</text>
	</g>
	<g>
		<text transform="matrix(0.875 0 0 1 18.7883 23.767)" fill="#FFFFFF" font-family="'GillSans'" font-size="17.1429">Enjoy</text>
	</g>
	<rect x="64.8" y="0" fill="none" width="367.2" height="111.1"/>
</g>
</svg>
